<?xml version="1.0" standalone="no"?>
<!DOCTYPE svg PUBLIC "-//W3C//DTD SVG 20010904//EN"
 "http://www.w3.org/TR/2001/REC-SVG-20010904/DTD/svg10.dtd">
<svg version="1.0" xmlns="http://www.w3.org/2000/svg"
 width="100.000000pt" height="100.000000pt" viewBox="0 0 100.000000 100.000000"
 preserveAspectRatio="xMidYMid meet">
<metadata>
Created by potrace 1.11, written by Peter Selinger 2001-2013
</metadata>
<g transform="translate(0.000000,100.000000) scale(0.100000,-0.100000)"
fill="#000000" stroke="none">
<path d="M155 911 c-11 -5 -31 -21 -45 -36 -22 -24 -25 -35 -25 -108 0 -66 3
-82 15 -82 12 0 16 16 18 70 4 103 19 119 119 125 60 4 78 8 78 20 0 12 -15
15 -70 17 -38 1 -79 -2 -90 -6z"/>
<path d="M685 910 c-12 -20 7 -28 82 -32 96 -5 105 -15 112 -115 5 -60 9 -78
21 -78 12 0 15 16 15 82 0 80 -1 84 -33 115 -30 31 -38 33 -111 36 -53 3 -81
0 -86 -8z"/>
<path d="M304 627 c-10 -28 0 -82 16 -82 11 0 15 12 15 44 0 44 -19 68 -31 38z"/>
<path d="M505 628 c-2 -7 -6 -51 -7 -98 -3 -81 -4 -84 -28 -90 -34 -8 -32 -34
2 -38 17 -2 34 4 48 18 19 19 20 30 18 117 -2 66 -7 98 -15 101 -7 2 -15 -2
-18 -10z"/>
<path d="M664 627 c-10 -28 0 -82 16 -82 11 0 15 12 15 44 0 44 -19 68 -31 38z"/>
<path d="M84 325 c-4 -8 -4 -51 -2 -95 3 -75 5 -82 36 -112 31 -32 35 -33 115
-33 66 0 82 3 82 15 0 12 -18 16 -78 20 -102 7 -113 18 -116 126 -1 43 -4 81
-7 86 -8 13 -24 9 -30 -7z"/>
<path d="M365 329 c-21 -33 91 -77 166 -65 50 8 109 36 109 52 0 23 -17 24
-61 4 -56 -25 -102 -25 -158 0 -51 23 -48 23 -56 9z"/>
<path d="M887 334 c-4 -4 -7 -43 -7 -86 0 -109 -17 -125 -140 -130 -41 -2 -55
-7 -55 -18 0 -12 16 -15 82 -15 80 0 84 1 115 33 32 32 33 34 33 124 0 85 -8
111 -28 92z"/>
</g>
</svg>
